<?xml version="1.0" encoding="UTF-8" standalone="no"?>
<!-- Copyright (c) 2024 Xu Shaohua <shaohua@biofan.org>. All rights reserved. -->
<!-- Use of this source is governed by Lesser General Public License -->
<!-- that can be found in the LICENSE file. -->

<!-- Created with Inkscape (http://www.inkscape.org/) -->

<svg
   width="128"
   height="128"
   viewBox="0 0 33.866666 33.866666"
   version="1.1"
   id="svg5"
   sodipodi:docname="logo.svg"
   inkscape:version="1.2.2 (b0a8486541, 2022-12-01)"
   inkscape:export-filename="logo.png"
   inkscape:export-xdpi="96"
   inkscape:export-ydpi="96"
   xmlns:inkscape="http://www.inkscape.org/namespaces/inkscape"
   xmlns:sodipodi="http://sodipodi.sourceforge.net/DTD/sodipodi-0.dtd"
   xmlns="http://www.w3.org/2000/svg"
   xmlns:svg="http://www.w3.org/2000/svg">
  <sodipodi:namedview
     id="namedview7"
     pagecolor="#ffffff"
     bordercolor="#000000"
     borderopacity="0.25"
     inkscape:showpageshadow="2"
     inkscape:pageopacity="0.0"
     inkscape:pagecheckerboard="0"
     inkscape:deskcolor="#d1d1d1"
     inkscape:document-units="px"
     showgrid="false"
     inkscape:zoom="2.2069466"
     inkscape:cx="9.5154094"
     inkscape:cy="23.335409"
     inkscape:window-width="1920"
     inkscape:window-height="1011"
     inkscape:window-x="0"
     inkscape:window-y="0"
     inkscape:window-maximized="1"
     inkscape:current-layer="layer1" />
  <defs
     id="defs2" />
  <g
     inkscape:label="Layer 1"
     inkscape:groupmode="layer"
     id="layer1">
    <circle
       style="fill:#b3e1ce;fill-opacity:1;stroke-width:0.264583"
       id="path1695"
       cx="16.933332"
       cy="16.933332"
       r="8.4666662" />
    <path
       style="fill:#444444;fill-opacity:1;stroke-width:0.264583"
       id="path130"
       d="m 14.560258,8.9468197 c 0.05568,-0.02045 0.109924,-0.0453 0.167027,-0.06134 0.164295,-0.04614 0.48628,-0.100933 0.634951,-0.1218803 0.482216,-0.06794 0.800026,-0.09477 1.303672,-0.1181827 0.303784,-0.01412 0.607968,-0.01766 0.911952,-0.0265 0.864445,0.01479 1.280751,0.0037 2.156782,0.0973 0.384451,0.04108 0.76699,0.0998 1.1483,0.163781 0.600631,0.1007773 1.349196,0.2535428 1.938409,0.4397076 0.234063,0.07395 0.458569,0.1753104 0.687854,0.2629664 1.62398,1.0335333 -0.718951,-0.4727612 -2.336007,-1.2294749 -0.09436,-0.044155 0.113811,0.1794455 0.136604,0.2811008 0.02781,0.1240228 0.0297,0.2552755 0.01188,0.3811227 -0.07185,0.5074634 -0.241586,0.7361674 -0.476045,1.2083707 -0.496641,0.749184 -0.663934,1.051999 -1.297851,1.762191 -0.685271,0.767728 -1.424446,1.427658 -2.219514,2.08044 -0.470265,0.386107 -0.942363,0.771541 -1.438923,1.123187 -0.500884,0.354708 -1.03346,0.662398 -1.550189,0.993597 -0.517643,0.316095 -1.03472,0.63312 -1.55293,0.948285 -0.516099,0.313881 -1.026823,0.6369 -1.549991,0.938852 -0.4785,0.276171 -0.969027,0.530962 -1.4542782,0.795092 -1.046108,0.569415 -2.0933384,1.135604 -3.1331929,1.716381 -0.3635309,0.229091 -0.709354,0.423781 -1.0343071,0.703041 -0.1454769,0.125022 -0.3830277,0.33423 -0.3481916,0.571618 0.018093,0.123297 0.072292,0.265025 0.1800308,0.32765 1.1864945,0.689668 2.434978,1.266698 3.6524672,1.900047 0.2222629,-0.0075 0.4448323,-0.0085 0.6667889,-0.02238 0.3004429,-0.01874 0.6001269,-0.04825 0.8999299,-0.07537 0.368168,-0.0333 0.736579,-0.06468 1.103947,-0.105884 0.802018,-0.08994 1.876153,-0.238722 2.663767,-0.370458 0.492516,-0.08238 0.982448,-0.179525 1.473672,-0.269288 2.066373,-0.395425 4.111066,-0.894163 6.172315,-1.314391 0.723404,-0.147481 1.771518,-0.338064 2.514169,-0.47527 1.138993,-0.195578 2.275722,-0.414537 3.423252,-0.555796 0.06067,-0.0044 0.222658,-0.04561 0.282364,0.03336 0.02291,0.0303 0.05265,0.130961 0.01959,0.112259 -1.10463,-0.624868 -2.162364,-1.330591 -3.269645,-1.950748 -0.04855,-0.02719 0.04933,0.10069 0.0628,0.154685 0.01994,0.07993 0.02449,0.162936 0.03673,0.244404 0.05396,0.43449 0.03267,0.870612 0.02011,1.306368 -0.0087,0.302401 -0.0052,0.309644 -4.77e-4,0.614085 0.0094,0.359661 0.0058,0.71877 -0.01461,1.077898 0,0 3.397437,1.725077 3.397437,1.725077 v 0 c -0.02953,-0.369041 -0.04556,-0.738457 -0.0474,-1.108768 -0.0061,-0.634142 -0.04013,-1.269659 0.03036,-1.901886 0.0076,-0.08176 0.01388,-0.163638 0.0227,-0.245269 0.0075,-0.06944 0.08306,-0.167204 0.02628,-0.207875 -3.391005,-2.428967 -2.164109,-2.650258 -3.692851,-2.015172 -0.926448,0.361102 -1.873463,0.665813 -2.817646,0.976519 -0.970713,0.303681 -1.205711,0.387724 -2.23841,0.661952 -0.906891,0.24082 -2.077521,0.521754 -2.989916,0.712758 -0.948356,0.198533 -2.20703,0.418961 -3.164689,0.591726 -0.509183,0.07312 -1.017052,0.156048 -1.527548,0.219346 -1.000161,0.124013 -1.827363,0.194684 -2.8315987,0.221767 -0.649202,0.01751 -1.6115789,0.0087 -2.2743972,-0.06659 -0.2684981,-0.03051 -0.5318937,-0.09581 -0.7978405,-0.143709 0.8990307,0.556153 1.8241915,1.072131 2.6970921,1.668458 0.073216,0.05002 -0.1824905,0.02251 -0.2659012,-0.0076 -0.2176042,-0.07848 -0.072823,-0.292289 -0.00546,-0.407163 0.1962896,-0.33475 0.4449992,-0.552173 0.7152515,-0.833518 0.213713,-0.188081 0.4217109,-0.382863 0.641139,-0.564244 0.667471,-0.551739 1.244593,-0.968913 1.966479,-1.466248 0.435856,-0.300279 0.873534,-0.59825 1.319929,-0.882626 0.509236,-0.324408 1.03261,-0.626095 1.546344,-0.94333 0.515352,-0.318233 1.027246,-0.642031 1.540869,-0.963047 0.511055,-0.338233 1.018723,-0.681642 1.533166,-1.014701 0.537231,-0.347812 1.094294,-0.665274 1.621702,-1.027809 0.727861,-0.500325 1.804872,-1.375031 2.491172,-1.952806 0.336173,-0.283015 0.677141,-0.561407 0.995033,-0.864812 0.24378,-0.232671 0.458398,-0.494094 0.687597,-0.741141 0.328128,-0.42026 0.615315,-0.712233 0.806456,-1.209121 0.0603,-0.156759 0.102428,-0.324894 0.104888,-0.492834 0.0021,-0.147054 0.02668,-0.3439073 -0.09135,-0.4316513 C 22.227626,8.0451171 22.295353,8.1008176 20.791398,7.476452 20.59656,7.4283767 20.403563,7.3721069 20.206884,7.3322263 19.701955,7.2298421 18.947764,7.130776 18.455761,7.0670236 17.790688,6.9808451 16.758815,6.8541287 16.097882,6.801619 15.732372,6.77258 15.365624,6.762116 14.999495,6.742364 14.133798,6.706231 13.266424,6.657097 12.399807,6.64814 12.241098,6.6465 12.082392,6.65185 11.923695,6.65438 11.816221,6.6561 11.708733,6.6642 11.601297,6.66088 11.527787,6.6586 11.455028,6.645362 11.381893,6.637602 c 0,0 3.178365,2.3092217 3.178365,2.3092217 z" />
    <path
       style="fill:#009a5b;fill-opacity:1;stroke-width:0.264583"
       id="path1900"
       d="m 28.318562,21.040954 c -1.511605,-1.083667 -2.162364,-1.330591 -3.269645,-1.950748 -0.04855,-0.02719 0.04933,0.10069 0.0628,0.154685 0.01994,0.07993 0.02449,0.162936 0.03673,0.244404 0.05396,0.43449 0.03267,0.870612 0.02011,1.306368 -0.0087,0.302401 -0.0052,0.309644 -4.77e-4,0.614085 0.0094,0.359661 0.0058,0.71877 -0.01461,1.077898 l 3.397437,1.725077 v 0 c -0.02953,-0.369041 -0.04556,-0.738457 -0.0474,-1.108768 -0.0061,-0.634142 -0.04013,-1.269659 0.03036,-1.901886 0.0076,-0.08176 0.01388,-0.163638 0.0227,-0.245269 0.0075,-0.06944 0.08306,-0.167204 0.02628,-0.207875 -5.168657,-4.939022 -3.154791,0.952163 -0.264285,0.292029 z"
       sodipodi:nodetypes="csscccccsccscc" />
  </g>
</svg>
